HIERARCHY
ROOT Hips
{
  OFFSET 13.6774 106.653 -34.4427
  CHANNELS 6 Xposition Yposition Zposition Zrotation Xrotation Yrotation
  JOINT ToSpine
  {
    OFFSET -2.69724 7.43032 -0.144315
    CHANNELS 3 Zrotation Xrotation Yrotation
    JOINT Spine
    {
      OFFSET -0.0310711 10.7595 1.96963
      CHANNELS 3 Zrotation Xrotation Yrotation
      JOINT Spine1
      {
        OFFSET 19.9056 3.91189 0.764692
        CHANNELS 3 Zrotation Xrotation Yrotation
        JOINT Neck
        {
          OFFSET 25.9749 7.03908 -0.130764
          CHANNELS 3 Zrotation Xrotation Yrotation
          JOINT Head
          {
            OFFSET 9.52751 0.295786 -0.907742
            CHANNELS 3 Zrotation Xrotation Yrotation
            End Site
            {
              OFFSET 16.4037 0.713936 2.7358
            }
          }
        }
        JOINT LeftShoulder
        {
          OFFSET 17.7449 4.33886 11.7777
          CHANNELS 3 Zrotation Xrotation Yrotation
          JOINT LeftArm
          {
            OFFSET 0.911315 1.27913 9.80584
            CHANNELS 3 Zrotation Xrotation Yrotation
            JOINT LeftForeArm
            {
              OFFSET 28.6126 1.18197 -3.53199
              CHANNELS 3 Zrotation Xrotation Yrotation
              JOINT LeftHand
              {
                OFFSET 27.5088 0.0218783 0.327423
                CHANNELS 3 Zrotation Xrotation Yrotation
                End Site
                {
                  OFFSET 18.6038 -0.000155887 0.382096
                }
              }
            }
          }
        }
        JOINT RightShoulder
        {
          OFFSET 17.1009 2.89543 -12.2328
          CHANNELS 3 Zrotation Xrotation Yrotation
          JOINT RightArm
          {
            OFFSET 1.4228 0.178766 -10.211
            CHANNELS 3 Zrotation Xrotation Yrotation
            JOINT RightForeArm
            {
              OFFSET 28.733 1.87905 2.64907
              CHANNELS 3 Zrotation Xrotation Yrotation
              JOINT RightHand
              {
                OFFSET 27.4588 0.290562 -0.101845
                CHANNELS 3 Zrotation Xrotation Yrotation
                End Site
                {
                  OFFSET 17.8396 -0.255518 -0.000602873
                }
              }
            }
          }
        }
      }
    }
  }
  JOINT LeftUpLeg
  {
    OFFSET -5.61296 -2.22332 -10.2353
    CHANNELS 3 Zrotation Xrotation Yrotation
    JOINT LeftLeg
    {
      OFFSET 2.56703 -44.7417 -7.93097
      CHANNELS 3 Zrotation Xrotation Yrotation
      JOINT LeftFoot
      {
        OFFSET 3.16933 -46.5642 -3.96578
        CHANNELS 3 Zrotation Xrotation Yrotation
        JOINT LeftToeBase
        {
          OFFSET 0.346054 -6.02161 12.8035
          CHANNELS 3 Zrotation Xrotation Yrotation
          End Site
          {
            OFFSET 0.134235 -1.35082 5.13018
          }
        }
      }
    }
  }
  JOINT RightUpLeg
  {
    OFFSET -5.7928 -1.72406 10.6446
    CHANNELS 3 Zrotation Xrotation Yrotation
    JOINT RightLeg
    {
      OFFSET -2.57161 -44.7178 -7.85259
      CHANNELS 3 Zrotation Xrotation Yrotation
      JOINT RightFoot
      {
        OFFSET -3.10148 -46.5936 -4.03391
        CHANNELS 3 Zrotation Xrotation Yrotation
        JOINT RightToeBase
        {
          OFFSET -0.0828122 -6.13587 12.8035
          CHANNELS 3 Zrotation Xrotation Yrotation
          End Site
          {
            OFFSET -0.131328 -1.35082 5.13018
          }
        }
      }
    }
  }
}
MOTION
Frames: 14
Frame Time: 0.03333333333333333
0.0000 93.1000 0.0000 4.3261 -73.9743 -86.1873 -71.0061 0.1047 87.4697 93.0875 72.4155 -8.6876 0.6207 19.9261 4.7483 -152.1264 22.4564 175.3216 -158.1520 62.1852 -171.5499 -0.2431 -13.9202 -34.1843 -78.0723 43.2924 -87.2409 9.8267 17.8228 -31.3442 -0.1078 0.0783 -0.0970 -2.8721 5.6602 46.6203 -86.8187 -22.4273 77.4135 1.9361 -17.3332 21.9166 0.1102 0.1973 0.2276 -43.9023 13.2720 83.0466 -4.5760 44.8104 -14.3040 -2.8642 -13.0127 -1.6433 6.1554 -14.7355 8.3648 -46.7202 -21.8549 101.1001 1.1401 39.6818 -5.0957 0.0317 0.0348 -0.0102 2.3501 -18.8706 -7.0436 
0.0000 93.1000 0.0000 4.5943 -73.2841 -85.6046 -71.0258 -0.0799 87.4293 92.9010 72.1680 -7.8136 0.8234 20.1537 4.8278 -151.8015 22.9074 173.9922 -157.8632 62.1707 -171.0411 -0.1375 -14.2006 -34.1584 -74.8068 42.7276 -89.1840 10.3414 17.1919 -31.3736 -0.0526 0.0074 -0.0769 -2.4093 5.1228 45.9444 -90.7880 -24.0614 76.2911 3.2368 -18.4067 22.6602 0.1307 0.0127 -0.0406 -43.5475 11.1040 83.9445 -5.4730 46.0032 -13.7340 -1.6000 -13.7519 -1.8754 5.2194 -13.1519 7.9042 -47.0291 -23.3384 100.2373 -0.1005 36.0401 -4.0531 -0.4084 5.7313 -0.6936 2.2634 -13.2366 -10.7053 
0.0000 93.1000 0.0000 2.8223 -72.5044 -87.9106 -71.0210 0.0397 87.3670 90.9023 72.3751 -5.1417 0.8886 20.9490 4.1006 -152.2766 22.8949 174.1169 -159.0417 62.8739 -169.2826 -0.4663 -14.2949 -33.8915 -73.4813 42.4632 -89.1397 10.1008 16.8628 -32.7637 -0.0905 -0.3819 0.4515 -2.2771 4.9922 45.5984 -90.1073 -25.7264 75.6979 4.4974 -15.7977 23.8413 -0.3145 0.5636 0.1662 -43.9210 8.8722 85.1337 -4.2157 45.3563 -13.4473 -0.3867 -14.1448 -1.8064 4.0256 -11.7906 7.1748 -46.5164 -23.9144 97.8970 -2.1109 34.3488 -1.0857 -2.0855 8.9068 -0.7877 1.6360 -6.9509 -11.3190 
0.0000 93.1000 0.0000 0.5284 -72.2231 -90.1650 -71.0466 -0.1450 87.2769 90.8912 72.7023 -4.7136 0.2825 20.9321 3.9535 -153.9372 23.0485 175.4556 -160.7697 63.2727 -168.7438 -0.5780 -14.0942 -34.0914 -74.9008 42.0979 -87.3688 11.0926 16.3473 -34.2812 -0.2401 -0.5943 0.3231 -2.2878 4.6316 45.8833 -86.9633 -27.8462 77.5100 4.9810 -13.1728 25.9247 -0.2778 0.6046 0.1394 -44.1830 6.8002 85.9154 -4.2358 44.1117 -12.5632 0.8731 -13.8081 -1.9583 3.7212 -11.0381 8.0204 -45.7285 -22.5175 98.9355 -1.0358 35.4305 -2.4238 -2.8472 6.8645 -0.5275 1.8810 -5.5959 -11.8888 
0.0000 93.1000 0.0000 -0.2419 -72.3848 -91.4869 -71.0716 -0.1746 87.2761 91.9857 73.1935 -6.4777 0.0435 21.1747 3.8640 -154.1662 23.0044 175.6693 -161.2636 62.9846 -169.6670 -0.3696 -13.9076 -33.7291 -75.8314 41.6927 -85.2296 10.5650 15.9034 -34.3067 -0.1893 -0.2810 0.1965 -2.2305 5.1595 46.2446 -83.8672 -29.0385 79.6420 5.6798 -12.4603 27.9116 -0.0541 0.3452 -0.0425 -45.7242 5.9696 85.9788 -3.4371 42.1719 -12.5425 1.3179 -12.8362 -1.9606 2.8426 -10.0566 8.0840 -45.0820 -18.1563 102.3814 -0.2340 37.7653 -5.6036 -3.4040 2.8847 -0.5635 1.8373 -7.7357 -16.2424 
0.0000 93.1000 0.0000 -1.0201 -71.5459 -91.3478 -71.0316 -0.1107 87.2590 92.0843 73.0480 -7.4892 0.0163 21.0926 4.0013 -154.1059 22.8223 175.9443 -161.1619 63.1188 -171.3387 -0.3514 -14.0005 -33.0416 -76.1639 40.5138 -84.1644 9.3726 14.3892 -34.3911 0.1383 -0.0931 0.0873 -2.0628 5.1141 46.2763 -81.0776 -30.0438 82.2280 7.0542 -13.2512 28.8535 0.0030 0.1944 -0.0776 -45.6939 4.9750 86.0086 -3.5341 40.8966 -11.7184 1.0438 -12.4411 -2.1239 2.1450 -9.0106 6.9106 -44.9518 -14.4657 101.7134 -0.1225 40.6429 -7.0668 -4.1530 -2.1722 -0.0102 2.1517 -11.4138 -16.1500 
0.0000 93.1000 0.0000 0.6626 -71.7142 -90.3075 -71.0380 -0.3682 87.3386 90.1722 72.6112 -6.1466 -0.2109 21.3219 4.2550 -154.3633 22.9871 174.7496 -161.6956 63.4461 -172.1840 -0.3857 -14.0862 -33.0265 -77.7217 40.3632 -83.1349 10.0126 16.0605 -33.2245 0.0475 -0.0495 0.0025 -2.2720 5.0954 45.9395 -79.0387 -30.9985 84.2505 8.0356 -14.7111 30.8166 -0.3079 -0.0606 -0.2662 -46.0715 4.0286 85.9189 -3.7192 38.9977 -10.9585 1.9553 -11.7151 -1.9912 2.2624 -8.1897 5.0126 -44.0691 -11.8153 98.4103 0.4076 42.3702 -8.2109 -5.0711 -5.8763 0.2002 1.8881 -14.2729 -15.3469 
0.0000 93.1000 0.0000 2.1592 -71.5839 -88.6605 -71.1126 -0.6503 87.2165 91.0311 72.4314 -7.4004 -0.5253 20.9810 4.5880 -154.2460 22.9825 175.3891 -161.9693 63.5571 -170.9710 -0.6959 -14.0375 -32.1449 -78.0108 39.7169 -82.1796 9.8152 16.9271 -32.1462 -0.0872 -0.3628 0.0512 -2.4830 4.9136 45.9229 -78.9046 -31.3984 84.4048 8.6822 -15.5735 31.6049 -0.2523 0.0770 -0.2325 -46.2475 2.8104 86.1769 -2.4586 38.2178 -11.2717 1.8413 -11.6354 -1.4857 2.2678 -8.0838 5.1111 -44.2445 -9.0106 94.2473 1.0515 44.3748 -8.1627 -5.6452 -8.9249 0.6239 1.7274 -16.2279 -16.3500 
0.0000 93.1000 0.0000 3.9791 -71.6472 -86.2940 -71.1878 -0.4977 87.3088 90.1100 72.3701 -6.8946 -1.1455 20.3140 4.9795 -154.2650 22.8905 174.3348 -162.0406 63.1408 -171.2859 -0.3055 -14.1833 -31.9416 -78.3595 38.8418 -83.0191 9.3846 17.0749 -31.1864 0.0398 -0.1878 0.1126 -2.3786 4.6342 46.4541 -77.1674 -32.2672 85.2107 8.9885 -14.9600 33.5431 -0.0727 0.0031 -0.1885 -46.1229 2.7463 86.0159 -2.7355 37.2369 -11.3080 2.1551 -10.8739 -1.5150 1.5011 -7.0985 4.1167 -44.1037 -5.9803 90.0134 1.0047 44.4851 -7.8725 -7.3364 -11.0987 1.0848 2.0076 -17.7443 -15.9051 
0.0000 93.1000 0.0000 5.2240 -71.5664 -84.2506 -71.1855 -0.5198 87.2963 90.2662 72.3035 -6.9756 -1.3778 19.9523 4.6234 -154.2778 22.9294 172.8174 -160.9356 63.0089 -170.9464 -0.0487 -14.0625 -31.8638 -78.0927 38.8464 -82.1785 9.0653 16.5820 -30.2805 -0.0229 0.0189 0.0828 -2.3850 4.8202 47.3190 -76.1527 -31.8817 85.2235 8.9699 -14.8336 34.6972 -0.0874 -0.1665 -0.3080 -46.3332 1.7866 86.1155 -2.5587 36.1094 -11.9916 2.9469 -11.1769 -1.8669 1.3733 -5.6860 3.0013 -43.8955 -2.8938 86.7900 -0.3001 44.6913 -7.8036 -7.7076 -12.7944 1.0910 1.5394 -18.3962 -14.9414 
0.0000 93.1000 0.0000 5.4747 -71.6478 -84.0450 -71.0799 -0.4783 87.4891 89.0905 72.3961 -6.6020 -1.0386 20.2817 4.0770 -154.3034 22.8328 173.8619 -161.3527 63.0850 -170.4878 -0.4946 -14.1678 -31.9845 -78.0258 37.8283 -83.0736 8.1077 15.5390 -29.1985 -0.1473 -0.2217 0.0682 -2.6180 4.9876 47.1442 -75.0432 -32.2341 86.0104 8.9738 -14.0653 34.7428 0.0139 -0.0941 -0.2956 -46.5661 0.8704 86.2431 -2.3338 35.0639 -10.9054 3.8721 -11.2765 -1.8544 1.0377 -5.3882 2.0759 -44.4062 -0.0410 85.0296 1.3631 43.6820 -6.2910 -8.3335 -13.9436 1.0625 1.7479 -19.0623 -16.7039 
0.0000 93.1000 0.0000 6.2129 -71.4963 -82.9235 -71.1082 -0.2528 87.5638 89.0936 72.4415 -6.9479 -1.1316 20.2703 3.3955 -155.1929 22.9438 174.2926 -161.9939 63.3668 -171.4837 -0.4403 -14.0653 -32.3054 -78.2951 37.6120 -83.0798 6.4120 14.3620 -28.2364 -0.1951 0.0432 -0.0453 -2.4520 5.2056 47.1308 -73.2751 -32.9166 87.0487 8.9089 -13.6809 35.7056 -0.0739 -0.2704 -0.3473 -47.0582 -0.4343 86.9828 -2.6307 35.3257 -11.0282 3.9771 -10.8340 -1.7698 1.2689 -5.6618 2.1109 -45.1848 2.7299 84.3823 1.2529 42.5523 -6.3425 -8.6847 -15.1203 1.1035 1.9016 -19.0981 -15.7177 
0.0000 93.1000 0.0000 7.4415 -71.5293 -83.0880 -71.2496 0.0262 87.4998 88.1811 72.4237 -5.5766 -0.6717 20.6040 2.8408 -154.1509 22.9340 173.3809 -163.1214 63.3208 -170.0094 0.0318 -14.2121 -32.1727 -78.8622 37.5560 -82.1564 6.0498 14.1000 -28.3063 -0.2691 0.3053 -0.0669 -2.2003 5.1827 46.1700 -71.3116 -33.0405 88.2369 9.0015 -14.1627 34.6877 -0.1118 -0.0715 -0.1201 -48.0552 -0.9082 88.0991 -2.9939 34.5297 -11.6760 4.5326 -9.7122 -2.0602 1.9933 -5.4907 1.2148 -46.2113 5.1489 86.1147 1.4478 40.4376 -5.2598 -8.7895 -15.6599 1.0041 1.7741 -20.3648 -15.3394 
0.0000 93.1000 0.0000 8.5292 -72.6354 -81.8149 -71.3865 -0.0811 87.6811 86.0351 71.6284 -4.0503 -0.3110 20.1015 2.7996 -154.1978 23.1190 175.2935 -162.4083 63.3365 -169.5565 -0.0686 -14.6458 -32.7709 -79.9344 37.7765 -81.0887 6.2331 15.0204 -27.5045 -0.2986 0.3192 -0.2483 -2.3255 5.7833 46.2791 -70.8321 -33.0344 89.0632 8.9406 -14.0145 33.5062 0.2237 -0.0023 -0.1890 -48.7345 -1.2005 89.0721 -1.8983 33.2915 -14.0382 4.8693 -10.0019 -1.9510 0.9894 -5.8152 2.4398 -48.2682 6.7373 87.2475 1.3557 37.7060 -1.9289 -9.6948 -16.0608 0.9985 2.1143 -21.1697 -16.2019 
